<svg width="75" height="99" viewBox="0 0 75 99" fill="none" xmlns="http://www.w3.org/2000/svg">
<path d="M71.0441 11.3439C64.8642 8.16927 56.9494 5.40435 49.7328 2.30076C49.4971 2.19778 49.3323 2.12674 49.2407 2.13831C45.9082 0.856561 42.301 0.165295 38.5449 0.167639C36.6337 0.167639 34.8279 0.268421 33.1157 0.462954C29.0781 0.923066 25.5603 1.93015 22.5367 3.4476C16.1029 6.10236 9.36455 8.56522 3.956 11.3439C0.158802 13.2939 -0.191445 16.9378 0.0649051 18.4873C0.75163 22.653 3.59887 33.5753 4.18481 35.7497C4.68374 37.606 6.74143 38.9976 9.2248 39.3272C10.6347 46.8736 14.2305 53.5225 19.2888 58.352C21.873 60.8149 24.8415 62.8039 28.0917 64.1772C31.3396 65.5505 34.8712 66.3058 38.5448 66.3036C42.7289 66.3059 46.7273 65.3239 50.3369 63.5684C55.7545 60.9316 60.3002 56.5668 63.4908 51.1354C65.6675 47.4321 67.2172 43.2228 67.9839 38.707C69.4121 38.0616 70.4765 37.0132 70.8151 35.7497C71.4011 33.5753 74.2485 22.653 74.935 18.4873C75.1915 16.9378 74.8413 13.2939 71.0441 11.3439ZM56.0659 52.8817C53.7885 55.5001 51.0945 57.5989 48.1329 59.0386C45.1711 60.4806 41.9462 61.268 38.5449 61.268C35.5603 61.268 32.7084 60.6592 30.0511 59.5375C27.3961 58.416 24.9355 56.7772 22.7634 54.708H22.7658C22.1432 54.1176 21.5504 53.4858 20.9804 52.8244C20.9942 52.8382 21.0102 52.8541 21.0263 52.8679C33.7934 46.2989 44.931 33.6852 44.1253 19.444C43.7315 12.534 40.66 8.089 36.9955 5.23033C37.5037 5.21436 38.0164 5.20279 38.5451 5.20279C42.0035 5.20513 45.2743 5.88951 48.2452 7.15969C49.4354 7.66785 50.5752 8.2721 51.6624 8.96337C52.5872 11.4857 53.7774 14.8892 55.2513 19.4783C53.173 32.7627 57.9475 38.1254 62.7611 39.192C61.6347 44.4885 59.2681 49.2012 56.0659 52.8817Z" fill="white"/>
<path d="M39.0888 45.2596C35.3603 45.2596 32.3367 47.7177 32.3367 50.7528C32.3367 53.7878 35.3603 56.246 39.0888 56.246C42.8173 56.246 45.841 53.7878 45.841 50.7528C45.841 47.7177 42.8173 45.2596 39.0888 45.2596Z" fill="white"/>
<path d="M5.11405 95.3036H1.44123V83.4018H5.27677C6.4313 83.4018 7.41924 83.64 8.24059 84.1166C9.06194 84.5892 9.69151 85.2692 10.1293 86.1564C10.5671 87.0397 10.786 88.0974 10.786 89.3294C10.786 90.5692 10.5652 91.6366 10.1235 92.5315C9.68182 93.4226 9.03869 94.1083 8.1941 94.5888C7.3495 95.0653 6.32282 95.3036 5.11405 95.3036ZM2.88246 94.025H5.02106C6.00513 94.025 6.82067 93.8352 7.46767 93.4555C8.11467 93.0758 8.59702 92.5354 8.91471 91.8341C9.2324 91.1329 9.39125 90.298 9.39125 89.3294C9.39125 88.3686 9.23434 87.5414 8.92052 86.8479C8.60671 86.1506 8.13792 85.6159 7.51416 85.244C6.8904 84.8682 6.11361 84.6803 5.18378 84.6803H2.88246V94.025ZM16.6439 95.4895C15.838 95.4895 15.131 95.2977 14.5227 94.9142C13.9183 94.5306 13.4457 93.9941 13.1047 93.3044C12.7677 92.6148 12.5992 91.809 12.5992 90.8869C12.5992 89.9571 12.7677 89.1454 13.1047 88.4519C13.4457 87.7584 13.9183 87.2199 14.5227 86.8363C15.131 86.4528 15.838 86.261 16.6439 86.261C17.4497 86.261 18.1549 86.4528 18.7593 86.8363C19.3675 87.2199 19.8402 87.7584 20.1772 88.4519C20.5182 89.1454 20.6886 89.9571 20.6886 90.8869C20.6886 91.809 20.5182 92.6148 20.1772 93.3044C19.8402 93.9941 19.3675 94.5306 18.7593 94.9142C18.1549 95.2977 17.4497 95.4895 16.6439 95.4895ZM16.6439 94.2575C17.256 94.2575 17.7597 94.1006 18.1549 93.7868C18.55 93.473 18.8425 93.0604 19.0324 92.5489C19.2222 92.0375 19.3171 91.4835 19.3171 90.8869C19.3171 90.2902 19.2222 89.7343 19.0324 89.219C18.8425 88.7037 18.55 88.2872 18.1549 87.9696C17.7597 87.6519 17.256 87.493 16.6439 87.493C16.0318 87.493 15.5281 87.6519 15.1329 87.9696C14.7378 88.2872 14.4452 88.7037 14.2554 89.219C14.0656 89.7343 13.9706 90.2902 13.9706 90.8869C13.9706 91.4835 14.0656 92.0375 14.2554 92.5489C14.4452 93.0604 14.7378 93.473 15.1329 93.7868C15.5281 94.1006 16.0318 94.2575 16.6439 94.2575ZM26.3853 98.8369C25.7228 98.8369 25.1533 98.7517 24.6767 98.5812C24.2002 98.4146 23.8031 98.1938 23.4854 97.9187C23.1716 97.6475 22.9217 97.3569 22.7357 97.047L23.8283 96.2799C23.9522 96.4426 24.1091 96.6286 24.299 96.8378C24.4888 97.0509 24.7484 97.2349 25.0777 97.3899C25.4109 97.5487 25.8468 97.6281 26.3853 97.6281C27.1059 97.6281 27.7006 97.4538 28.1694 97.1051C28.6382 96.7564 28.8726 96.2101 28.8726 95.4663V93.6531H28.7563C28.6556 93.8158 28.5123 94.0173 28.3263 94.2575C28.1442 94.4938 27.8808 94.705 27.5359 94.8909C27.195 95.073 26.734 95.1641 26.1528 95.1641C25.4322 95.1641 24.7852 94.9936 24.2118 94.6527C23.6423 94.3117 23.1909 93.8158 22.8578 93.165C22.5284 92.5141 22.3638 91.7237 22.3638 90.7939C22.3638 89.8796 22.5246 89.0834 22.8461 88.4054C23.1677 87.7235 23.6152 87.1966 24.1886 86.8247C24.762 86.4489 25.4245 86.261 26.1761 86.261C26.7572 86.261 27.2183 86.3579 27.5592 86.5516C27.904 86.7414 28.1675 86.9584 28.3495 87.2024C28.5355 87.4426 28.6789 87.6402 28.7796 87.7952H28.9191V86.3772H30.2441V95.5593C30.2441 96.3264 30.0697 96.9501 29.721 97.4305C29.3762 97.9148 28.9113 98.2693 28.3263 98.494C27.7452 98.7226 27.0982 98.8369 26.3853 98.8369ZM26.3388 93.9321C26.8889 93.9321 27.3539 93.8062 27.7335 93.5543C28.1132 93.3025 28.4018 92.9402 28.5994 92.4676C28.797 91.9949 28.8958 91.4293 28.8958 90.7707C28.8958 90.1275 28.799 89.5599 28.6052 89.0679C28.4115 88.5759 28.1248 88.1904 27.7452 87.9114C27.3655 87.6325 26.8967 87.493 26.3388 87.493C25.7577 87.493 25.2734 87.6402 24.8859 87.9347C24.5024 88.2291 24.2138 88.6243 24.02 89.1202C23.8302 89.6161 23.7353 90.1663 23.7353 90.7707C23.7353 91.3905 23.8321 91.9387 24.0258 92.4153C24.2234 92.8879 24.514 93.2599 24.8976 93.5311C25.285 93.7984 25.7654 93.9321 26.3388 93.9321ZM38.0314 95.3036H36.5204L40.8906 83.4018H42.3783L46.7485 95.3036H45.2375L41.6809 85.2847H41.5879L38.0314 95.3036ZM38.5893 90.6544H44.6796V91.9329H38.5893V90.6544ZM48.4164 98.6509V86.3772H49.7414V87.7952H49.9041C50.0048 87.6402 50.1443 87.4426 50.3225 87.2024C50.5046 86.9584 50.7642 86.7414 51.1012 86.5516C51.4422 86.3579 51.9032 86.261 52.4844 86.261C53.236 86.261 53.8985 86.4489 54.4719 86.8247C55.0452 87.2005 55.4927 87.7332 55.8143 88.4228C56.1359 89.1125 56.2966 89.9261 56.2966 90.8636C56.2966 91.809 56.1359 92.6284 55.8143 93.3219C55.4927 94.0115 55.0472 94.5461 54.4777 94.9258C53.9081 95.3016 53.2515 95.4895 52.5076 95.4895C51.9342 95.4895 51.4751 95.3946 51.1303 95.2048C50.7855 95.0111 50.5201 94.7922 50.3341 94.5481C50.1482 94.3001 50.0048 94.0948 49.9041 93.9321H49.7879V98.6509H48.4164ZM49.7646 90.8404C49.7646 91.5145 49.8634 92.1092 50.061 92.6245C50.2586 93.1359 50.5472 93.5369 50.9269 93.8275C51.3066 94.1142 51.7715 94.2575 52.3216 94.2575C52.895 94.2575 53.3735 94.1064 53.7571 93.8042C54.1445 93.4981 54.4351 93.0875 54.6288 92.5722C54.8264 92.053 54.9251 91.4758 54.9251 90.8404C54.9251 90.2128 54.8283 89.6471 54.6346 89.1435C54.4447 88.6359 54.1561 88.2349 53.7687 87.9405C53.3851 87.6422 52.9028 87.493 52.3216 87.493C51.7637 87.493 51.2949 87.6344 50.9153 87.9172C50.5356 88.1962 50.2489 88.5875 50.0552 89.0912C49.8615 89.5909 49.7646 90.174 49.7646 90.8404ZM58.3887 98.6509V86.3772H59.7138V87.7952H59.8765C59.9772 87.6402 60.1167 87.4426 60.2949 87.2024C60.477 86.9584 60.7366 86.7414 61.0736 86.5516C61.4146 86.3579 61.8756 86.261 62.4567 86.261C63.2084 86.261 63.8709 86.4489 64.4442 86.8247C65.0176 87.2005 65.4651 87.7332 65.7867 88.4228C66.1082 89.1125 66.269 89.9261 66.269 90.8636C66.269 91.809 66.1082 92.6284 65.7867 93.3219C65.4651 94.0115 65.0196 94.5461 64.4501 94.9258C63.8805 95.3016 63.2238 95.4895 62.48 95.4895C61.9066 95.4895 61.4475 95.3946 61.1027 95.2048C60.7579 95.0111 60.4925 94.7922 60.3065 94.5481C60.1206 94.3001 59.9772 94.0948 59.8765 93.9321H59.7602V98.6509H58.3887ZM59.737 90.8404C59.737 91.5145 59.8358 92.1092 60.0334 92.6245C60.231 93.1359 60.5196 93.5369 60.8993 93.8275C61.279 94.1142 61.7439 94.2575 62.294 94.2575C62.8674 94.2575 63.3459 94.1064 63.7294 93.8042C64.1169 93.4981 64.4074 93.0875 64.6012 92.5722C64.7987 92.053 64.8975 91.4758 64.8975 90.8404C64.8975 90.2128 64.8007 89.6471 64.607 89.1435C64.4171 88.6359 64.1285 88.2349 63.7411 87.9405C63.3575 87.6422 62.8752 87.493 62.294 87.493C61.7361 87.493 61.2673 87.6344 60.8877 87.9172C60.508 88.1962 60.2213 88.5875 60.0276 89.0912C59.8339 89.5909 59.737 90.174 59.737 90.8404Z" fill="white"/>
</svg>
